<?xml version="1.0" encoding="UTF-8"?>
<svg version="1.1" xmlns="http://www.w3.org/2000/svg" width="627" height="627">
<path d="M0 0 C3.51676318 -0.00968072 7.03293417 -0.04079473 10.54956055 -0.07226562 C25.26359248 -0.14117263 39.4662861 0.83943493 53.98510742 3.24023438 C55.19094482 3.43907227 56.39678223 3.63791016 57.63916016 3.84277344 C60.41456003 4.34085839 63.16727785 4.89183384 65.92260742 5.49023438 C66.90165039 5.7000293 67.88069336 5.90982422 68.8894043 6.12597656 C115.52858317 16.43897942 157.65012146 36.62470585 194.98510742 66.24023438 C195.88358398 66.9440625 196.78206055 67.64789063 197.70776367 68.37304688 C205.8717421 74.88980138 213.44365646 82.0229874 220.98510742 89.24023438 C221.74283447 89.96291504 221.74283447 89.96291504 222.51586914 90.70019531 C227.6039996 95.5775748 232.24002662 100.54718464 236.41479492 106.23242188 C238.12363179 108.41735259 240.00536568 110.30024649 241.98510742 112.24023438 C245.98510742 116.90690104 245.98510742 116.90690104 245.98510742 119.24023438 C246.64510742 119.24023438 247.30510742 119.24023438 247.98510742 119.24023438 C251.98510742 124.65199908 251.98510742 124.65199908 251.98510742 127.24023438 C252.64510742 127.24023438 253.30510742 127.24023438 253.98510742 127.24023438 C255.13012695 128.67724609 255.13012695 128.67724609 256.36791992 130.66992188 C256.81264648 131.38277344 257.25737305 132.095625 257.71557617 132.83007812 C258.17577148 133.58417969 258.6359668 134.33828125 259.11010742 135.11523438 C259.57803711 135.86160156 260.0459668 136.60796875 260.52807617 137.37695312 C263.98510742 142.97069174 263.98510742 142.97069174 263.98510742 145.24023438 C264.64510742 145.24023438 265.30510742 145.24023438 265.98510742 145.24023438 C270.17205113 152.80611512 274.17861051 160.44473281 278.04760742 168.17773438 C278.55098633 169.17224609 279.05436523 170.16675781 279.57299805 171.19140625 C283.02881664 178.08963147 286.11834033 185.07802655 288.98510742 192.24023438 C289.29295166 193.00634033 289.6007959 193.77244629 289.91796875 194.56176758 C300.18253159 220.54366277 307.37118682 248.39629754 309.98510742 276.24023438 C310.07123291 277.05492187 310.1573584 277.86960937 310.24609375 278.70898438 C311.15155318 288.04900395 311.18395509 297.36568832 311.17260742 306.74023438 C311.17219955 308.00447235 311.17219955 308.00447235 311.17178345 309.29425049 C311.14497303 327.35332016 309.64782617 344.54930281 305.98510742 362.24023438 C305.83332031 363.0160083 305.6815332 363.79178223 305.52514648 364.59106445 C301.77375914 383.76213949 296.9305367 403.14091924 288.86791992 420.99023438 C287.80248126 423.30285639 287.80248126 423.30285639 287.98510742 426.24023438 C287.32510742 426.24023438 286.66510742 426.24023438 285.98510742 426.24023438 C285.81567627 426.78478271 285.64624512 427.32933105 285.47167969 427.89038086 C283.65302627 433.55844665 281.4779103 438.92904959 278.92260742 444.30273438 C278.53266602 445.12346436 278.14272461 445.94419434 277.7409668 446.78979492 C274.08679083 454.31091982 269.82698126 461.33771288 265.2434082 468.32177734 C263.5213373 470.94731735 261.82692194 473.59029808 260.1315918 476.2331543 C259.34505133 477.45759705 258.55611309 478.68050398 257.7644043 479.90161133 C255.7557237 483.00158168 255.7557237 483.00158168 253.98510742 486.24023438 C253.32510742 486.24023438 252.66510742 486.24023438 251.98510742 486.24023438 C251.7556543 486.76746094 251.52620117 487.2946875 251.28979492 487.83789062 C249.55089762 491.03975242 247.36203018 493.82818596 245.11010742 496.67773438 C244.6312207 497.28665527 244.15233398 497.89557617 243.65893555 498.52294922 C239.64737209 503.55297235 235.38276522 508.30772817 230.95825195 512.97631836 C228.92891844 515.11801084 227.0017663 517.21729056 225.26635742 519.60742188 C224.84354492 520.14625 224.42073242 520.68507813 223.98510742 521.24023438 C223.32510742 521.24023438 222.66510742 521.24023438 221.98510742 521.24023438 C221.60805664 522.12388672 221.60805664 522.12388672 221.22338867 523.02539062 C219.83055342 525.5166764 218.36425023 526.86323852 216.17260742 528.67773438 C213.88985785 530.58076158 211.73567193 532.49091497 209.63745117 534.59960938 C206.65822591 537.56567164 203.55207913 540.31990908 200.36010742 543.05273438 C199.43814575 543.84212402 199.43814575 543.84212402 198.49755859 544.64746094 C194.01287737 548.44912202 189.40587356 552.00437966 184.59838867 555.39257812 C182.88572614 556.60347405 181.19423711 557.84501755 179.52807617 559.11914062 C167.14705512 568.53328106 153.27051078 575.82065517 139.30541992 582.58398438 C136.06659736 584.13913862 136.06659736 584.13913862 133.43823242 585.80273438 C130.58496302 587.4747139 127.70995515 588.59159721 124.61010742 589.74023438 C121.15764437 591.03684326 117.74741258 592.34268905 114.36010742 593.80273438 C90.58000336 603.93129722 64.52051874 609.05526811 38.98510742 612.24023438 C37.96562012 612.37075195 37.96562012 612.37075195 36.92553711 612.50390625 C34.94620907 612.75583848 32.96565032 612.99803781 30.98510742 613.24023438 C29.7037793 613.418125 28.42245117 613.59601562 27.10229492 613.77929688 C-4.53451818 617.19256498 -36.87866126 613.15324186 -67.69848633 605.93945312 C-71.10233245 605.10270045 -71.10233245 605.10270045 -75.01489258 605.24023438 C-75.01489258 604.58023438 -75.01489258 603.92023437 -75.01489258 603.24023438 C-76.34520508 603.12228516 -76.34520508 603.12228516 -77.70239258 603.00195312 C-83.67540269 602.14288315 -89.32240319 599.98719336 -95.01489258 598.05273438 C-96.22661133 597.64273193 -97.43833008 597.23272949 -98.68676758 596.81030273 C-114.24140426 591.50407709 -128.59563988 585.10708728 -143.01489258 577.24023438 C-144.17375977 576.61117187 -145.33262695 575.98210938 -146.52661133 575.33398438 C-148.31561123 574.35946907 -150.10258995 573.38121688 -151.88598633 572.39648438 C-153.90835303 571.29809806 -155.95007749 570.25617984 -158.01489258 569.24023438 C-158.01489258 568.58023438 -158.01489258 567.92023437 -158.01489258 567.24023438 C-158.73032227 566.97210937 -159.44575195 566.70398438 -160.18286133 566.42773438 C-163.05618197 565.22292131 -165.64826884 563.82786326 -168.32739258 562.24023438 C-169.21040039 561.72460938 -170.0934082 561.20898438 -171.00317383 560.67773438 C-171.66704102 560.20335937 -172.3309082 559.72898437 -173.01489258 559.24023438 C-173.01489258 558.58023438 -173.01489258 557.92023437 -173.01489258 557.24023438 C-173.5743457 556.98113281 -174.13379883 556.72203125 -174.71020508 556.45507812 C-182.13937655 552.53902333 -188.77303877 546.70821326 -195.38989258 541.55273438 C-195.9723877 541.10164307 -196.55488281 540.65055176 -197.1550293 540.18579102 C-200.68785027 537.41029375 -203.88782079 534.47860872 -207.01489258 531.24023438 C-207.62333008 530.63179687 -208.23176758 530.02335938 -208.85864258 529.39648438 C-212.24405924 526.01106771 -215.62947591 522.62565104 -219.01489258 519.24023438 C-219.77930664 518.49386719 -220.5437207 517.7475 -221.33129883 516.97851562 C-224.14513167 514.10734121 -226.75378494 511.13725079 -229.32739258 508.05273438 C-230.00898438 507.25319336 -230.00898438 507.25319336 -230.7043457 506.4375 C-234.01489258 502.47977855 -234.01489258 502.47977855 -234.01489258 500.24023438 C-234.67489258 500.24023438 -235.33489258 500.24023438 -236.01489258 500.24023438 C-237.43188477 498.63891602 -237.43188477 498.63891602 -239.06176758 496.40039062 C-239.65989258 495.58376953 -240.25801758 494.76714844 -240.87426758 493.92578125 C-241.49817383 493.06017578 -242.12208008 492.19457031 -242.76489258 491.30273438 C-243.37333008 490.47193359 -243.98176758 489.64113281 -244.60864258 488.78515625 C-250.23998059 481.05409925 -255.62816905 473.23682169 -260.26489258 464.86523438 C-260.63912354 464.19387451 -261.01335449 463.52251465 -261.39892578 462.83081055 C-281.01489258 427.43458221 -281.01489258 427.43458221 -281.01489258 421.24023438 C-281.67489258 420.91023438 -282.33489258 420.58023437 -283.01489258 420.24023438 C-283.73022461 418.34619141 -283.73022461 418.34619141 -284.39770508 415.87304688 C-285.44961517 412.15242636 -286.5883438 408.50124789 -287.88208008 404.85742188 C-292.51543379 391.6709774 -295.96993843 378.60907234 -298.51977539 364.87011719 C-298.955377 362.55635951 -299.42327639 360.25387359 -299.91333008 357.95117188 C-300.71372001 354.06016737 -301.41162656 350.16569857 -302.01489258 346.24023438 C-302.12462402 345.5410791 -302.23435547 344.84192383 -302.34741211 344.12158203 C-306.31937054 317.00453049 -304.91914533 286.83646952 -300.44311523 259.86474609 C-300.00053919 257.15226465 -299.62041268 254.43546796 -299.24536133 251.71289062 C-296.51554408 233.05752609 -290.90881524 214.77361428 -284.01489258 197.24023438 C-283.72694824 196.48830811 -283.43900391 195.73638184 -283.14233398 194.96166992 C-280.50794882 188.19740003 -277.47594491 181.65379863 -274.32739258 175.11523438 C-273.54162842 173.47905151 -273.54162842 173.47905151 -272.73999023 171.80981445 C-269.01412397 164.12613682 -265.05413389 156.62973958 -260.75708008 149.25195312 C-259.42060703 146.94159277 -258.16699918 144.64540538 -257.01489258 142.24023438 C-256.35489258 142.24023438 -255.69489258 142.24023438 -255.01489258 142.24023438 C-254.76739258 141.55960938 -254.51989258 140.87898437 -254.26489258 140.17773438 C-252.7729135 136.67158354 -250.94653747 133.52403069 -249.01489258 130.24023438 C-248.35489258 130.24023438 -247.69489258 130.24023438 -247.01489258 130.24023438 C-246.78672852 129.55058594 -246.55856445 128.8609375 -246.32348633 128.15039062 C-244.71798717 124.57995221 -242.51116938 121.70772746 -240.07739258 118.67773438 C-239.59302734 118.06784668 -239.10866211 117.45795898 -238.60961914 116.82958984 C-234.45199938 111.65605073 -230.03933904 106.7536717 -225.50317383 101.91210938 C-223.43002697 99.68599878 -221.42728792 97.4277582 -219.45239258 95.11523438 C-200.06548893 72.80638114 -175.50723331 54.91821194 -150.01489258 40.24023438 C-149.31638184 39.83417969 -148.61787109 39.428125 -147.89819336 39.00976562 C-117.79952574 21.57681045 -85.66040224 11.6326502 -51.88037109 3.89648438 C-50.10384507 3.48962556 -48.32915525 3.07454007 -46.55761719 2.64648438 C-31.47531109 -0.75551605 -15.36450922 0.02545725 0 0 Z " fill="#FCFCFD" transform="translate(310.014892578125,6.759765625)"/>
<path d="M0 0 C15.51 0 31.02 0 47 0 C49.92215406 10.51975462 52.81172332 20.96201851 55.33203125 31.5703125 C55.75424202 33.32998856 55.75424202 33.32998856 56.1849823 35.12521362 C57.06384327 38.79109359 57.93826616 42.45801415 58.8125 46.125 C59.41571881 48.64460233 60.01923239 51.16413411 60.62304688 53.68359375 C62.08542483 59.78825467 63.54418318 65.89377127 65 72 C67.3288504 69.11454159 69.6128949 66.21780214 71.77734375 63.20703125 C72.28418701 62.50352539 72.79103027 61.80001953 73.31323242 61.07519531 C73.84924072 60.32850586 74.38524902 59.58181641 74.9375 58.8125 C76.09890941 57.19918353 77.26036919 55.58590332 78.421875 53.97265625 C79.01419922 53.14910645 79.60652344 52.32555664 80.21679688 51.47705078 C82.4891925 48.32046179 84.76842112 45.16884469 87.04785156 42.01733398 C92.64660033 34.27528815 98.21847019 26.5147022 103.76318359 18.73388672 C105.09682474 16.86426189 106.43293607 14.99642028 107.76953125 13.12890625 C108.45462769 12.17129395 108.45462769 12.17129395 109.15356445 11.19433594 C110.02806821 9.97209206 110.90288741 8.75007379 111.77807617 7.52832031 C113.55671435 5.04107152 115.30362435 2.54456348 117 0 C119.25259399 -0.36076355 119.25259399 -0.36076355 122.09228516 -0.34057617 C123.15323395 -0.34034958 124.21418274 -0.34012299 125.30728149 -0.33988953 C127.03076309 -0.31666374 127.03076309 -0.31666374 128.7890625 -0.29296875 C130.54940323 -0.28660149 130.54940323 -0.28660149 132.3453064 -0.28010559 C136.10543454 -0.26326976 139.86503297 -0.22560777 143.625 -0.1875 C146.16926311 -0.17245954 148.7135346 -0.15877003 151.2578125 -0.14648438 C157.50539005 -0.11335017 163.75265719 -0.06310206 170 0 C169.69041496 1.75198571 169.37832363 3.50352866 169.06518555 5.25488281 C168.89166061 6.23032043 168.71813568 7.20575806 168.53935242 8.21075439 C167.84230733 11.81550313 166.86472984 15.23059643 165.8125 18.75 C163.26844788 27.62361617 161.22531275 36.58288309 159.22216797 45.59179688 C158.91123465 46.98960599 158.6001941 48.38739126 158.2890625 49.78515625 C158.12288422 50.53189606 157.95670593 51.27863586 157.78549194 52.04800415 C156.1039656 59.5794368 154.37783957 67.10053405 152.6484375 74.62109375 C152.49798162 75.27551264 152.34752575 75.92993153 152.1925106 76.60418129 C150.80853419 82.62319209 149.42323617 88.64189834 148.03665161 94.66030884 C144.92586207 108.16625492 141.83000048 121.67511022 138.81640625 135.203125 C138.59049301 136.21501892 138.36457977 137.22691284 138.13182068 138.26947021 C136.01086674 147.83149411 134.01815616 157.41375825 132 167 C116.82 167 101.64 167 86 167 C86.66580122 161.00778906 87.42675236 155.57063018 88.890625 149.80078125 C89.07552994 149.05150864 89.26043488 148.30223602 89.45094299 147.53025818 C89.84365027 145.94099476 90.23884365 144.35234382 90.63638306 142.76428223 C91.67412596 138.61785237 92.69332788 134.46685773 93.71484375 130.31640625 C93.91554977 129.50303802 94.1162558 128.6896698 94.32304382 127.85165405 C95.88731061 121.49943992 97.3818569 115.13372512 98.8125 108.75 C99.00481201 107.89301514 99.19712402 107.03603027 99.39526367 106.15307617 C99.75798007 104.53474197 100.12038333 102.91633754 100.48242188 101.29785156 C103.14251458 89.48804378 106.03062979 77.73533014 109 66 C108.67950684 66.47083008 108.35901367 66.94166016 108.02880859 67.42675781 C100.04294605 79.14990234 91.96682044 90.80570458 83.81445312 102.41357422 C81.90954102 105.12894543 80.00892647 107.8472826 78.109375 110.56640625 C77.47378662 111.47592041 76.83819824 112.38543457 76.18334961 113.32250977 C74.96498473 115.06618817 73.74702764 116.81015162 72.52954102 118.55444336 C71.97967529 119.34085205 71.42980957 120.12726074 70.86328125 120.9375 C70.14072144 121.97197266 70.14072144 121.97197266 69.40356445 123.02734375 C68.94038818 123.67832031 68.47721191 124.32929688 68 125 C67.5460083 125.73500732 67.0920166 126.47001465 66.62426758 127.22729492 C65 129 65 129 62.74755859 129.4699707 C61.88984863 129.45538818 61.03213867 129.44080566 60.1484375 129.42578125 C59.21515625 129.41740234 58.281875 129.40902344 57.3203125 129.40039062 C56.34835937 129.37138672 55.37640625 129.34238281 54.375 129.3125 C52.90546875 129.29799805 52.90546875 129.29799805 51.40625 129.28320312 C44.16791102 129.16791102 44.16791102 129.16791102 43 128 C42.56571829 126.17539195 42.18076043 124.33907025 41.8125 122.5 C40.37632537 115.6133675 38.77670486 108.77550593 37.125 101.9375 C36.7396106 100.34143921 36.7396106 100.34143921 36.34643555 98.71313477 C35.82365935 96.54958044 35.30062859 94.38608761 34.77734375 92.22265625 C33.54898159 87.13020006 32.33645932 82.03399923 31.125 76.9375 C30.9098877 76.03314209 30.69477539 75.12878418 30.47314453 74.19702148 C29.98188108 72.13139884 29.49090432 70.06570802 29 68 C26.23865466 78.75359211 23.72026075 89.54324778 21.36553955 100.39282227 C20.79715617 103.00810094 20.22403614 105.62230619 19.64990234 108.23632812 C17.78038837 116.76010754 15.93262767 125.28777365 14.13621521 133.82728577 C13.33359436 137.63631401 12.52134408 141.44325822 11.70809937 145.25003052 C11.32008555 147.07995215 10.93694697 148.91091446 10.55874634 150.7428894 C10.03273859 153.28959097 9.49082913 155.83241772 8.9453125 158.375 C8.7925032 159.13651871 8.63969391 159.89803741 8.48225403 160.68263245 C8.02392578 162.7734375 8.02392578 162.7734375 7 166 C4.26893489 166.91035504 2.70106761 167.12215713 -0.10424805 167.11352539 C-1.3351844 167.11341209 -1.3351844 167.11341209 -2.59098816 167.11329651 C-3.9129998 167.10555458 -3.9129998 167.10555458 -5.26171875 167.09765625 C-6.16751175 167.0962413 -7.07330475 167.09482635 -8.00654602 167.09336853 C-10.90023091 167.08777001 -13.79383849 167.07521781 -16.6875 167.0625 C-18.64908742 167.05748481 -20.61067606 167.05292193 -22.57226562 167.04882812 C-27.38153844 167.03865192 -32.19075946 167.01989055 -37 167 C-33.94614383 152.27179504 -30.70724259 137.58825542 -27.421875 122.91015625 C-26.8861434 120.51251077 -26.35052164 118.11484075 -25.81500244 115.71714783 C-24.41187898 109.43614462 -23.00740965 103.15544317 -21.6026001 96.87481689 C-19.3743392 86.91136896 -17.14836725 76.94740916 -14.92189026 66.98356247 C-14.11564293 63.37570449 -13.30923409 59.76788264 -12.50280762 56.1600647 C-8.31972519 37.44345931 -4.15500567 18.72286091 0 0 Z " fill="#04193C" transform="translate(230,218)"/>
<path d="M0 0 C5.02924668 1.3270576 8.46149327 3.6185433 12.3125 7 C12.87864014 7.49129395 13.44478027 7.98258789 14.02807617 8.48876953 C31.97348244 24.31980849 43.28167851 45.2485645 45.18017578 69.28076172 C47.39801763 108.39904032 28.47476943 143.86913017 3.14013672 172.39697266 C-10.45373803 187.46148787 -25.89454962 199.58941395 -43.3125 209.9375 C-44.20694824 210.46907715 -45.10139648 211.0006543 -46.02294922 211.54833984 C-55.60226179 217.11467332 -65.53465994 221.40338442 -76 225 C-77.22460938 225.42539062 -78.44921875 225.85078125 -79.7109375 226.2890625 C-86.40078033 228.58638942 -93.03148913 230.71799709 -100 232 C-100.80050781 232.16113281 -101.60101563 232.32226562 -102.42578125 232.48828125 C-116.24190637 235.16963294 -129.83117086 236.3837132 -143.875 236.3125 C-144.62979645 236.31067719 -145.3845929 236.30885437 -146.16226196 236.30697632 C-189.23261625 236.13344001 -229.94155836 223.84655289 -270.671875 211.04345703 C-314.50927925 197.29924739 -359.53355699 187.40489214 -405 199 C-406.21945312 199.27585937 -407.43890625 199.55171875 -408.6953125 199.8359375 C-418.74026152 202.43066858 -427.78074526 207.87528812 -436.82446289 212.82666016 C-438.86409264 213.92670062 -440.92149566 214.97567239 -443 216 C-438.44515763 203.3746845 -426.90602699 194.09650288 -416 187 C-415.30003906 186.50886719 -414.60007812 186.01773438 -413.87890625 185.51171875 C-397.95992303 174.98419152 -378.55500784 170.91631767 -360 168 C-359.29262695 167.8872876 -358.58525391 167.7745752 -357.85644531 167.65844727 C-350.04654697 166.60524908 -342.11567199 166.8003709 -334.25 166.8125 C-333.46800232 166.81343658 -332.68600464 166.81437317 -331.88031006 166.81533813 C-300.22017323 166.89745143 -264.53117977 170.10311022 -235 182 C-231.37350724 182.79161156 -227.73292816 183.45208123 -224.08203125 184.12109375 C-221.15256366 184.70060405 -218.36646379 185.49133522 -215.5234375 186.40234375 C-209.11296453 188.37465601 -202.56080281 189.5493937 -195.97045898 190.73486328 C-193.83177404 191.12151545 -191.69625961 191.52307635 -189.56054688 191.92578125 C-161.75616668 197.05743524 -130.95066722 197.73062212 -103.49169922 190.640625 C-101.29443009 190.07569905 -99.09652082 189.57072759 -96.87890625 189.09375 C-55.87336782 179.55963127 -19.53568119 150.51210011 2.74072266 115.43041992 C12.47225304 99.65288988 20.86922502 81.85775222 21 63 C21.03738281 61.95714844 21.07476563 60.91429687 21.11328125 59.83984375 C21.59149668 38.72285715 14.82449071 18.91608991 1.28515625 2.609375 C0 1 0 1 0 0 Z " fill="#0462F5" transform="translate(502,251)"/>
<path d="M0 0 C33.99 0 67.98 0 103 0 C100.87100814 13.83844709 100.87100814 13.83844709 99 20 C98.41532257 22.73885892 97.92372328 25.49216216 97.4375 28.25 C96.12573386 35.62279843 96.12573386 35.62279843 95 39 C76.19 39 57.38 39 38 39 C37.505 43.95 37.505 43.95 37 49 C36.56224459 50.93183367 36.07444976 52.8543158 35.5 54.75 C34.35652556 58.56920461 33.6668777 61.99873378 33 66 C50.16 66 67.32 66 85 66 C82.46140896 78.69295518 79.91065458 91.38716347 77 104 C59.51 104 42.02 104 24 104 C24 106.31 24 108.62 24 111 C23.48095703 113.91503906 23.48095703 113.91503906 22.7578125 116.765625 C22.49613281 117.82136719 22.23445313 118.87710938 21.96484375 119.96484375 C21.68769531 121.04894531 21.41054687 122.13304687 21.125 123.25 C19.33791196 130.33849753 17.65749904 137.38918783 16.41918945 144.59643555 C15.14157433 151.9220738 13.14513196 158.84956014 11 166 C-4.51 166 -20.02 166 -36 166 C-35.31228718 159.12287181 -34.4535346 152.69884696 -33 146 C-32.65775391 144.38327393 -32.65775391 144.38327393 -32.30859375 142.73388672 C-31.54530227 139.13372853 -30.77358979 135.53545847 -30 131.9375 C-29.73960938 130.72255859 -29.47921875 129.50761719 -29.2109375 128.25585938 C-27.328859 119.48708455 -25.43590028 110.73040357 -23.30200195 102.01928711 C-21.27084354 93.69210251 -19.43839867 85.35287341 -17.8125 76.9375 C-15.43685479 64.71406924 -12.70010007 52.57827075 -9.9375 40.4375 C-9.72380768 39.49582977 -9.51011536 38.55415955 -9.28994751 37.58395386 C-2.35837197 7.07511592 -2.35837197 7.07511592 0 0 Z " fill="#0362F5" transform="translate(117,218)"/>
<path d="M0 0 C2.64 0 5.28 0 8 0 C8.05607422 1.03447266 8.05607422 1.03447266 8.11328125 2.08984375 C8.82822059 12.30927081 10.84406185 20.37809378 18 28 C22.97433256 32.24217972 27.63601197 35.10766996 34.1875 35.5625 C38.90063091 35.90063091 38.90063091 35.90063091 40 37 C40.28900141 41.91302391 39.59301717 45.3979504 38 50 C37.68673223 51.64185874 37.397814 53.28843683 37.125 54.9375 C36.38116147 59.25637644 35.37431604 63.40679841 34.1875 67.625 C32.06868036 75.22507063 30.55001304 82.92114688 29.10229492 90.67431641 C26.82410275 102.57779645 23.84105446 114.16227309 21 126 C42.12 126 63.24 126 85 126 C84.29952982 131.60376146 83.5714682 136.00100341 81.96875 141.2734375 C81.77277222 141.92325592 81.57679443 142.57307434 81.37487793 143.24258423 C80.96436022 144.5996505 80.55079913 145.95579966 80.13427734 147.31103516 C79.49569558 149.38900678 78.86621218 151.46956894 78.23828125 153.55078125 C75.1726973 163.65460541 75.1726973 163.65460541 74 166 C37.37 166 0.74 166 -37 166 C-36.1990053 160.39303711 -35.2437352 154.91743623 -34.125 149.375 C-33.96386719 148.56160156 -33.80273438 147.74820313 -33.63671875 146.91015625 C-32.23165424 139.90661762 -30.623804 132.95557279 -29 126 C-28.33836515 123.14357044 -27.6789983 120.28661822 -27.01953125 117.4296875 C-26.66033397 115.87483378 -26.30112138 114.3199836 -25.94189453 112.76513672 C-22.15838695 96.38428278 -18.39109827 79.99984868 -14.65161133 63.60888672 C-12.7794536 55.40319815 -10.89545618 47.200342 -9 39 C-8.24585954 35.73312696 -7.4920867 32.46616911 -6.73828125 29.19921875 C-6.33789659 27.46419133 -5.93750592 25.7291653 -5.53710938 23.99414062 C-5.33625732 23.12378174 -5.13540527 22.25342285 -4.9284668 21.35668945 C-3.28564453 14.23779297 -1.64282227 7.11889648 0 0 Z " fill="#0462F5" transform="translate(409,218)"/>
<path d="M0 0 C0.33 0 0.66 0 1 0 C0.96782952 14.8305917 -1.43684688 27.90492704 -6 42 C-6.23348145 42.73202637 -6.46696289 43.46405273 -6.70751953 44.21826172 C-15.07069535 69.86736167 -30.66703985 92.47802433 -49 112 C-49.49741699 112.53141602 -49.99483398 113.06283203 -50.50732422 113.61035156 C-71.1089413 135.43996216 -96.75549018 151.07445292 -125 161 C-125.63679688 161.22719727 -126.27359375 161.45439453 -126.9296875 161.68847656 C-138.6902563 165.83029514 -150.69418453 168.1132442 -163 170 C-163.78133301 170.12004395 -164.56266602 170.24008789 -165.36767578 170.36376953 C-193.60065375 174.51185979 -224.21537316 172.25774683 -252 166 C-252.95213379 165.78923828 -253.90426758 165.57847656 -254.88525391 165.36132812 C-288.10905777 157.87112887 -319.78812029 145.893967 -351.1796875 132.85546875 C-362.38843178 128.22325317 -373.78800343 124.20378928 -385.25 120.25 C-386.4621669 119.82871826 -386.4621669 119.82871826 -387.69882202 119.39892578 C-398.35645159 115.70431337 -409.00713806 112.53565155 -420 110 C-420 109.67 -420 109.34 -420 109 C-396.37861479 106.33617531 -370.51217968 110.48866999 -348.1159668 118.28125 C-344.74453781 119.42645445 -341.3126975 120.32759369 -337.875 121.25 C-330.87279299 123.15848518 -323.9327454 125.22885282 -317 127.375 C-304.42391719 131.25210184 -291.73594449 134.68983111 -279 138 C-277.99880127 138.26288818 -276.99760254 138.52577637 -275.96606445 138.79663086 C-216.04450027 154.22136067 -149.83074997 149.6159141 -95.8125 117.9375 C-50.80964193 90.72058918 -17.27873972 49.73604084 0 0 Z " fill="#061B3D" transform="translate(568,355)"/>
<path d="M0 0 C10.62932423 8.95100988 18.78367516 20.12973499 20.23413086 34.28491211 C21.2432771 51.81455585 17.62389755 65.00125994 5.8671875 78.4375 C1.08732616 83.50048901 -3.72911929 87.01443729 -10 90 C-10.58136719 90.33128906 -11.16273438 90.66257812 -11.76171875 91.00390625 C-18.19709772 93.86781836 -24.50132938 94.340491 -31.4375 94.3125 C-32.23220703 94.32861328 -33.02691406 94.34472656 -33.84570312 94.36132812 C-39.72616406 94.36611288 -44.54865158 93.14928194 -50 91 C-51.216875 90.525625 -52.43375 90.05125 -53.6875 89.5625 C-64.94738927 84.25123148 -73.48968437 75.10672995 -79 64 C-79.4125 63.24074219 -79.825 62.48148437 -80.25 61.69921875 C-85.3091749 50.68497339 -84.9970279 35.06828639 -80.9375 23.75 C-74.06299997 8.93892831 -63.45532697 -1.68622964 -48.41796875 -8.1015625 C-31.97726425 -13.50603372 -13.74837276 -10.2791572 0 0 Z " fill="#FBFCFD" transform="translate(512,97)"/>
<path d="M0 0 C10.62932423 8.95100988 18.78367516 20.12973499 20.23413086 34.28491211 C21.2432771 51.81455585 17.62389755 65.00125994 5.8671875 78.4375 C1.08732616 83.50048901 -3.72911929 87.01443729 -10 90 C-10.58136719 90.33128906 -11.16273438 90.66257812 -11.76171875 91.00390625 C-18.19709772 93.86781836 -24.50132938 94.340491 -31.4375 94.3125 C-32.23220703 94.32861328 -33.02691406 94.34472656 -33.84570312 94.36132812 C-39.72616406 94.36611288 -44.54865158 93.14928194 -50 91 C-51.216875 90.525625 -52.43375 90.05125 -53.6875 89.5625 C-64.94738927 84.25123148 -73.48968437 75.10672995 -79 64 C-79.4125 63.24074219 -79.825 62.48148437 -80.25 61.69921875 C-85.3091749 50.68497339 -84.9970279 35.06828639 -80.9375 23.75 C-74.06299997 8.93892831 -63.45532697 -1.68622964 -48.41796875 -8.1015625 C-31.97726425 -13.50603372 -13.74837276 -10.2791572 0 0 Z M-66.7734375 17.34375 C-73.7845903 28.15118553 -75.59417146 40.07248955 -73.3125 52.6875 C-70.12316098 64.833202 -61.30141706 74.58173082 -50.65234375 80.84375 C-40.28557722 85.36298843 -26.03631114 86.04299994 -15.3359375 82.171875 C-5.5256317 77.2503169 3.74918932 69.35308556 8 59 C12.19538323 45.09941693 11.8799107 34.53111428 5.71484375 21.2265625 C-0.2554977 10.41675208 -8.76832685 4.71079224 -20.23828125 0.93359375 C-38.33537947 -3.55779407 -55.37233933 2.27621938 -66.7734375 17.34375 Z " fill="#0C65F4" transform="translate(512,97)"/>
<path d="M0 0 C7.5103502 4.73600442 13.08353932 10.68404008 15.703125 19.33203125 C17.51170619 28.53770951 14.84453093 36.40376446 9.78125 44.1328125 C5.63065771 49.53112885 0.61193883 52.50572513 -5.90625 54.3203125 C-14.95819918 55.33919304 -22.40681165 54.70119201 -29.90625 49.3203125 C-36.33293151 44.06910949 -40.33525943 38.98816044 -41.375 30.48828125 C-41.4500668 20.9266482 -40.6813013 13.68705494 -34.109375 6.30078125 C-24.64009467 -2.69503506 -12.08871533 -6.26335613 0 0 Z " fill="#0B65F4" transform="translate(412.90625,151.6796875)"/>
<path d="M0 0 C4.78891432 3.69145479 7.42058342 8.20880586 9 14 C10.13002828 24.37114841 8.21473565 31.90937941 1.80859375 40.13671875 C-3.45674276 45.5612663 -9.87217317 47.68247486 -17.25 48.25 C-25.37053713 47.70863086 -32.47842199 44.72872965 -38.125 38.75 C-38.74375 37.8425 -39.3625 36.935 -40 36 C-40.37382812 35.47019531 -40.74765625 34.94039062 -41.1328125 34.39453125 C-45.00426008 28.04589868 -44.92461816 21.21851018 -44 14 C-41.45108418 5.58632212 -36.37950214 0.95361772 -29.3125 -3.8125 C-19.13065517 -9.04101491 -9.13049812 -5.73055287 0 0 Z " fill="#0D66F3" transform="translate(469,201)"/>
<path d="M0 0 C6.2611301 0.69568112 12.25655521 3.66101365 16.4375 8.4375 C20.06997622 13.94480265 20.04089623 19.92237175 19.375 26.375 C16.69155997 31.94829853 12.40951424 35.65270813 7.0625 38.6875 C2.28423074 39.90984795 -2.21090486 40.40354053 -6.84375 38.4296875 C-11.92992638 35.41214256 -15.39865601 32.07295677 -17.875 26.625 C-19.08009353 21.40292802 -19.81678677 16.93939636 -17.4921875 11.9375 C-14.10405453 6.54486952 -10.67223646 2.89271367 -4.625 0.625 C-3.08133359 0.4320417 -1.54004419 0.22000631 0 0 Z " fill="#F8F9FC" transform="translate(399.625,157.625)"/>
<path d="M0 0 C4.80003497 5.05949632 6.58836192 9.42088173 6.4453125 16.328125 C5.46436759 22.21379444 1.95063185 26.50300346 -2.6875 30.0625 C-8.7892878 31.78942108 -15.25914595 32.3337284 -21 29.25 C-25.3577763 25.98166778 -28.42431171 22.20503385 -29.40625 16.73828125 C-29.64251703 10.6248718 -28.47158728 6.75243786 -24.765625 1.8515625 C-18.08758413 -5.15151576 -7.85879699 -4.4687277 0 0 Z " fill="#F8F9FC" transform="translate(463,208)"/>
<path d="M0 0 C7.77201488 2.56003868 14.86675052 8.99285879 19.3125 15.76171875 C21.81087782 20.96605474 24.48038129 26.92231228 23.3125 32.76171875 C21.32689921 34.96006248 20.21210857 35.70719702 17.25 35.88671875 C14.14749055 34.08526165 13.49715131 30.98061979 12.3125 27.76171875 C8.49675524 18.0398647 4.15507811 13.86410845 -5.359375 9.38671875 C-7.6875 7.76171875 -7.6875 7.76171875 -8.57421875 5.19140625 C-8.6875 2.76171875 -8.6875 2.76171875 -7.75 0.88671875 C-5.07678504 -0.5713985 -2.96660298 -0.50715823 0 0 Z " fill="#1168F3" transform="translate(491.6875,105.23828125)"/>
<path d="M0 0 C0.66 0.33 1.32 0.66 2 1 C1.34 2.32 0.68 3.64 0 5 C2.65737657 7.18284504 4.65569263 8.27633685 8 9 C4.58365629 10.79228299 1.16686902 12.58371873 -2.25 14.375 C-3.21808594 14.88289063 -4.18617187 15.39078125 -5.18359375 15.9140625 C-6.11816406 16.40390625 -7.05273438 16.89375 -8.015625 17.3984375 C-9.30388184 18.07398682 -9.30388184 18.07398682 -10.61816406 18.76318359 C-12.7357756 19.86279615 -14.86241112 20.93985977 -17 22 C-13.77174258 13.05177191 -6.76564013 6.44932449 0 0 Z " fill="#1266F1" transform="translate(76,445)"/>
<path d="M0 0 C5.71428571 0.71428571 5.71428571 0.71428571 7 2 C7.07226502 3.85287502 7.0838122 5.70833878 7.0625 7.5625 C7.05347656 8.57441406 7.04445313 9.58632812 7.03515625 10.62890625 C7.02355469 11.41136719 7.01195312 12.19382813 7 13 C5.576875 12.9690625 5.576875 12.9690625 4.125 12.9375 C1.09333717 12.77448174 1.09333717 12.77448174 -1 14 C-2.76800578 10.46398843 -2.2656995 6.4423687 -1.5625 2.625 C-1 1 -1 1 0 0 Z " fill="#0460F4" transform="translate(374,171)"/>
<path d="M0 0 C0.56203125 0.22558594 1.1240625 0.45117188 1.703125 0.68359375 C0.713125 1.34359375 -0.276875 2.00359375 -1.296875 2.68359375 C-1.296875 3.67359375 -1.296875 4.66359375 -1.296875 5.68359375 C-0.678125 5.47734375 -0.059375 5.27109375 0.578125 5.05859375 C1.279375 4.93484375 1.980625 4.81109375 2.703125 4.68359375 C3.363125 5.34359375 4.023125 6.00359375 4.703125 6.68359375 C7.27373811 7.33127168 7.27373811 7.33127168 9.703125 7.68359375 C9.703125 8.01359375 9.703125 8.34359375 9.703125 8.68359375 C9.01605469 8.81636719 8.32898438 8.94914063 7.62109375 9.0859375 C6.26951172 9.35083984 6.26951172 9.35083984 4.890625 9.62109375 C3.99730469 9.79511719 3.10398437 9.96914062 2.18359375 10.1484375 C-0.41084671 10.66100528 -0.41084671 10.66100528 -3.296875 11.68359375 C-3.874375 11.06484375 -4.451875 10.44609375 -5.046875 9.80859375 C-7.12079678 7.84988985 -8.75258831 6.87021485 -11.296875 5.68359375 C-9.89135201 4.64747104 -8.47195806 3.6301445 -7.046875 2.62109375 C-6.25796875 2.05261719 -5.4690625 1.48414063 -4.65625 0.8984375 C-2.296875 -0.31640625 -2.296875 -0.31640625 0 0 Z " fill="#1264EF" transform="translate(444.296875,196.31640625)"/>
<path d="M0 0 C4.54158149 1.28522761 7.70558363 2.97882644 11.375 5.9375 C12.68597656 6.97197266 12.68597656 6.97197266 14.0234375 8.02734375 C15.00183594 9.00380859 15.00183594 9.00380859 16 10 C16 13.15084005 15.54526333 14.33871316 14 17 C13.34 17.66 12.68 18.32 12 19 C11.55269531 18.21496094 11.10539063 17.42992187 10.64453125 16.62109375 C7.3340294 10.86830269 3.98313642 5.31084855 0 0 Z " fill="#186BF3" transform="translate(502,251)"/>
<path d="M0 0 C0 1.65 0 3.3 0 5 C-3.08809695 6.76462683 -4.23312136 7 -8 7 C-8.66 6.67 -9.32 6.34 -10 6 C-9.6875 4.125 -9.6875 4.125 -9 2 C-5.5647952 -0.29013653 -4.014669 -0.17842973 0 0 Z " fill="#025FF3" transform="translate(452,196)"/>
<path d="M0 0 C3.65316671 1.24976756 4.78065836 1.67098753 7 5 C5.35 5.33 3.7 5.66 2 6 C1.67 7.65 1.34 9.3 1 11 C-1.64 10.01 -4.28 9.02 -7 8 C-3.375 5 -3.375 5 0 5 C0 3.35 0 1.7 0 0 Z " fill="#1565EF" transform="translate(412,152)"/>
<path d="M0 0 C3.37814093 0.39742834 6.40799465 0.75453437 9.5625 2.0625 C12.4912491 3.18894196 14.88889767 3.14470243 18 3 C17.67 3.99 17.34 4.98 17 6 C10.25390382 5.33644956 3.65551466 4.28134207 -3 3 C-2.01 2.67 -1.02 2.34 0 2 C0 1.34 0 0.68 0 0 Z " fill="#256FED" transform="translate(301,478)"/>
<path d="M0 0 C0.66 0.33 1.32 0.66 2 1 C2 1.66 2 2.32 2 3 C1.01 3.804375 0.02 4.60875 -1 5.4375 C-2.485 6.7059375 -2.485 6.7059375 -4 8 C-4 8.99 -4 9.98 -4 11 C-5.64556566 12.03435556 -7.3170608 13.02763513 -9 14 C-10.7041054 15.62836738 -12.38025441 17.28769752 -14 19 C-14 16 -14 16 -12.71484375 14.4921875 C-11.83505859 13.69167969 -11.83505859 13.69167969 -10.9375 12.875 C-6.80335526 8.93490695 -3.40890883 4.56938843 0 0 Z " fill="#186AF2" transform="translate(496,379)"/>
<path d="M0 0 C3.32829192 0.38701069 6.66323821 0.69547999 10 1 C10 1.33 10 1.66 10 2 C6.39590081 2.05800828 2.79192149 2.09359869 -0.8125 2.125 C-2.34874023 2.15013672 -2.34874023 2.15013672 -3.91601562 2.17578125 C-4.89892578 2.18222656 -5.88183594 2.18867188 -6.89453125 2.1953125 C-7.80050049 2.20578613 -8.70646973 2.21625977 -9.63989258 2.22705078 C-12 2 -12 2 -15 0 C-5.03225806 -1.25806452 -5.03225806 -1.25806452 0 0 Z " fill="#3176EE" transform="translate(352,485)"/>
<path d="M0 0 C0.66 0 1.32 0 2 0 C2 5.61 2 11.22 2 17 C1.34 17.33 0.68 17.66 0 18 C0.020625 16.7625 0.04125 15.525 0.0625 14.25 C0.07291197 11.30341276 -0.23285893 8.84938113 -1 6 C-0.67 5.34 -0.34 4.68 0 4 C0 2.68 0 1.36 0 0 Z " fill="#055CEF" transform="translate(436,130)"/>
<path d="M0 0 C0.99 0.99 1.98 1.98 3 3 C2.34 4.32 1.68 5.64 1 7 C-1.475 6.01 -1.475 6.01 -4 5 C-2.68 3.35 -1.36 1.7 0 0 Z " fill="#075DEF" transform="translate(512,167)"/>
<path d="M0 0 C0.99 0.66 1.98 1.32 3 2 C4.65549531 2.38499891 6.3222433 2.72793135 8 3 C8 3.33 8 3.66 8 4 C4.37 4.66 0.74 5.32 -3 6 C-3 3 -3 3 -1.5 1.3125 C-0.7575 0.6628125 -0.7575 0.6628125 0 0 Z " fill="#2972EE" transform="translate(446,201)"/>
<path d="M0 0 C2.475 0.99 2.475 0.99 5 2 C4.67 2.99 4.34 3.98 4 5 C2.02 5 0.04 5 -2 5 C-1.34 3.35 -0.68 1.7 0 0 Z " fill="#1264EF" transform="translate(395,201)"/>
<path d="M0 0 C0.66 0 1.32 0 2 0 C3.125 3.75 3.125 3.75 2 6 C-0.97 5.505 -0.97 5.505 -4 5 C-2.71937515 3.2925002 -1.38232443 1.62626404 0 0 Z " fill="#045DF0" transform="translate(468,183)"/>
<path d="M0 0 C0.99 0 1.98 0 3 0 C2.34 1.65 1.68 3.3 1 5 C0.01 4.34 -0.98 3.68 -2 3 C-1.34 2.01 -0.68 1.02 0 0 Z M-5 4 C-4.01 4.99 -3.02 5.98 -2 7 C-3.32 6.67 -4.64 6.34 -6 6 C-5.67 5.34 -5.34 4.68 -5 4 Z " fill="#065DEF" transform="translate(459,177)"/>
<path d="M0 0 C0.625 1.8125 0.625 1.8125 1 4 C-1 7 -1 7 -3.125 7.6875 C-3.74375 7.790625 -4.3625 7.89375 -5 8 C-3.8141763 4.62496331 -2.72426311 2.35277269 0 0 Z " fill="#1D6BF0" transform="translate(380,157)"/>
<path d="M0 0 C0.66 0.99 1.32 1.98 2 3 C1.1875 6 1.1875 6 0 9 C-0.33 9.99 -0.66 10.98 -1 12 C-2 11 -2 11 -2.1875 8.25 C-2.00187851 5.03256076 -1.36114502 2.89243317 0 0 Z " fill="#206DF1" transform="translate(374,165)"/>
<path d="M0 0 C0.66 1.32 1.32 2.64 2 4 C-1.3 3.34 -4.6 2.68 -8 2 C-4.77208445 -0.1519437 -3.71599191 -0.20086443 0 0 Z " fill="#2C74ED" transform="translate(212,452)"/>
<path d="M0 0 C0.33 0 0.66 0 1 0 C1 2.64 1 5.28 1 8 C-0.32 7.34 -1.64 6.68 -3 6 C-2 4 -1 2 0 0 Z " fill="#2C72ED" transform="translate(416,218)"/>
<path d="M0 0 C1.98 0.66 3.96 1.32 6 2 C6 2.66 6 3.32 6 4 C3.03 3.67 0.06 3.34 -3 3 C-2.01 2.67 -1.02 2.34 0 2 C0 1.34 0 0.68 0 0 Z " fill="#3579ED" transform="translate(301,478)"/>
<path d="M0 0 C2.64 0.99 5.28 1.98 8 3 C8 3.66 8 4.32 8 5 C3.545 4.01 3.545 4.01 -1 3 C-0.67 2.01 -0.34 1.02 0 0 Z " fill="#2D73ED" transform="translate(265,469)"/>
<path d="M0 0 C0.33 0.66 0.66 1.32 1 2 C1.99 1.67 2.98 1.34 4 1 C3.67 1.99 3.34 2.98 3 4 C0.69 3.67 -1.62 3.34 -4 3 C-3 1 -3 1 0 0 Z " fill="#2A71EB" transform="translate(162,442)"/>
</svg>
